<svg xmlns="http://www.w3.org/2000/svg" xmlns:xlink="http://www.w3.org/1999/xlink" version="1.2" baseProfile="tiny" x="0px" y="0px" viewBox="0 0 100 125" xml:space="preserve"><path d="M92.5,5H50C25.187,5,5,25.187,5,50c0,11.509,4.348,22.018,11.481,29.984L5.732,90.732c-0.977,0.976-0.977,2.559,0,3.535   C6.221,94.756,6.86,95,7.5,95s1.279-0.244,1.768-0.732l10.749-10.749C27.982,90.652,38.491,95,50,95c24.813,0,45-20.187,45-45V7.5   C95,6.119,93.881,5,92.5,5z M90,50c0,22.056-17.944,40-40,40c-10.13,0-19.387-3.793-26.442-10.023L28.535,75H62.5   c1.381,0,2.5-1.119,2.5-2.5S63.881,70,62.5,70H33.535l10-10H72.5c1.381,0,2.5-1.119,2.5-2.5S73.881,55,72.5,55H48.535l10-10H77.5   c1.381,0,2.5-1.119,2.5-2.5S78.881,40,77.5,40H63.535l15.732-15.732c0.977-0.976,0.977-2.559,0-3.535   c-0.977-0.977-2.559-0.977-3.535,0L60,36.465V22.5c0-1.381-1.119-2.5-2.5-2.5S55,21.119,55,22.5v18.965l-10,10V27.5   c0-1.381-1.119-2.5-2.5-2.5S40,26.119,40,27.5v28.965l-10,10V37.5c0-1.381-1.119-2.5-2.5-2.5S25,36.119,25,37.5v33.965   l-4.977,4.977C13.793,69.387,10,60.13,10,50c0-22.056,17.944-40,40-40h40V50z"/><text x="0" y="115" fill="#000000" font-size="5px" font-weight="bold" font-family="'Helvetica Neue', Helvetica, Arial-Unicode, Arial, Sans-serif">Created by Arthur Shlain</text><text x="0" y="120" fill="#000000" font-size="5px" font-weight="bold" font-family="'Helvetica Neue', Helvetica, Arial-Unicode, Arial, Sans-serif">from the Noun Project</text></svg>